<svg xmlns="http://www.w3.org/2000/svg" xmlns:xlink="http://www.w3.org/1999/xlink" width="500" zoomAndPan="magnify" viewBox="0 0 375 374.999991" height="500" preserveAspectRatio="xMidYMid meet" version="1.0"><defs><g/></defs><g fill="#737373" fill-opacity="1"><g transform="translate(0.0117232, 184.449812)"><g><path d="M 43.859375 1.515625 C 33.335938 1.515625 24.992188 -0.691406 18.828125 -5.109375 C 12.660156 -9.523438 8.640625 -15.695312 6.765625 -23.625 L 22.546875 -30.609375 L 24.203125 -30.3125 C 25.734375 -25.65625 28.019531 -22.148438 31.0625 -19.796875 C 34.113281 -17.453125 38.304688 -16.28125 43.640625 -16.28125 C 49.109375 -16.28125 53.332031 -17.835938 56.3125 -20.953125 C 59.289062 -24.078125 60.78125 -28.734375 60.78125 -34.921875 C 60.78125 -41.066406 59.300781 -45.722656 56.34375 -48.890625 C 53.394531 -52.066406 49.375 -53.65625 44.28125 -53.65625 C 40.394531 -53.65625 37.128906 -52.8125 34.484375 -51.125 C 31.847656 -49.445312 29.644531 -46.953125 27.875 -43.640625 L 10.65625 -44.859375 L 12.8125 -105.28125 L 75.46875 -105.28125 L 75.46875 -87.78125 L 30.3125 -87.78125 L 29.3125 -60.921875 L 30.828125 -60.640625 C 33.273438 -63.847656 36.203125 -66.28125 39.609375 -67.9375 C 43.015625 -69.59375 47.117188 -70.421875 51.921875 -70.421875 C 57.921875 -70.421875 63.164062 -69.085938 67.65625 -66.421875 C 72.144531 -63.765625 75.613281 -59.804688 78.0625 -54.546875 C 80.507812 -49.296875 81.734375 -42.875 81.734375 -35.28125 C 81.734375 -27.550781 80.253906 -20.9375 77.296875 -15.4375 C 74.347656 -9.945312 70.039062 -5.75 64.375 -2.84375 C 58.707031 0.0625 51.867188 1.515625 43.859375 1.515625 Z M 43.859375 1.515625 "/></g></g></g><g fill="#737373" fill-opacity="1"><g transform="translate(88.730437, 184.449812)"><g><path d="M 51.421875 1.515625 C 42.828125 1.515625 35.347656 -0.390625 28.984375 -4.203125 C 22.617188 -8.023438 17.671875 -13.96875 14.140625 -22.03125 C 10.617188 -30.101562 8.859375 -40.304688 8.859375 -52.640625 C 8.859375 -64.984375 10.617188 -75.1875 14.140625 -83.25 C 17.671875 -91.3125 22.617188 -97.25 28.984375 -101.0625 C 35.347656 -104.882812 42.828125 -106.796875 51.421875 -106.796875 C 60.054688 -106.796875 67.554688 -104.882812 73.921875 -101.0625 C 80.285156 -97.25 85.226562 -91.3125 88.75 -83.25 C 92.28125 -75.1875 94.046875 -64.984375 94.046875 -52.640625 C 94.046875 -40.304688 92.28125 -30.101562 88.75 -22.03125 C 85.226562 -13.96875 80.285156 -8.023438 73.921875 -4.203125 C 67.554688 -0.390625 60.054688 1.515625 51.421875 1.515625 Z M 51.421875 -16.125 C 56.117188 -16.125 60.050781 -17.265625 63.21875 -19.546875 C 66.394531 -21.828125 68.832031 -25.65625 70.53125 -31.03125 C 72.238281 -36.414062 73.09375 -43.617188 73.09375 -52.640625 C 73.09375 -61.671875 72.238281 -68.875 70.53125 -74.25 C 68.832031 -79.625 66.394531 -83.453125 63.21875 -85.734375 C 60.050781 -88.015625 56.117188 -89.15625 51.421875 -89.15625 C 46.710938 -89.15625 42.773438 -88.015625 39.609375 -85.734375 C 36.441406 -83.453125 34.003906 -79.625 32.296875 -74.25 C 30.585938 -68.875 29.734375 -61.671875 29.734375 -52.640625 C 29.734375 -43.617188 30.585938 -36.414062 32.296875 -31.03125 C 34.003906 -25.65625 36.441406 -21.828125 39.609375 -19.546875 C 42.773438 -17.265625 46.710938 -16.125 51.421875 -16.125 Z M 51.421875 -16.125 "/></g></g></g><g fill="#737373" fill-opacity="1"><g transform="translate(191.635509, 184.449812)"><g><path d="M 51.421875 1.515625 C 42.828125 1.515625 35.347656 -0.390625 28.984375 -4.203125 C 22.617188 -8.023438 17.671875 -13.96875 14.140625 -22.03125 C 10.617188 -30.101562 8.859375 -40.304688 8.859375 -52.640625 C 8.859375 -64.984375 10.617188 -75.1875 14.140625 -83.25 C 17.671875 -91.3125 22.617188 -97.25 28.984375 -101.0625 C 35.347656 -104.882812 42.828125 -106.796875 51.421875 -106.796875 C 60.054688 -106.796875 67.554688 -104.882812 73.921875 -101.0625 C 80.285156 -97.25 85.226562 -91.3125 88.75 -83.25 C 92.28125 -75.1875 94.046875 -64.984375 94.046875 -52.640625 C 94.046875 -40.304688 92.28125 -30.101562 88.75 -22.03125 C 85.226562 -13.96875 80.285156 -8.023438 73.921875 -4.203125 C 67.554688 -0.390625 60.054688 1.515625 51.421875 1.515625 Z M 51.421875 -16.125 C 56.117188 -16.125 60.050781 -17.265625 63.21875 -19.546875 C 66.394531 -21.828125 68.832031 -25.65625 70.53125 -31.03125 C 72.238281 -36.414062 73.09375 -43.617188 73.09375 -52.640625 C 73.09375 -61.671875 72.238281 -68.875 70.53125 -74.25 C 68.832031 -79.625 66.394531 -83.453125 63.21875 -85.734375 C 60.050781 -88.015625 56.117188 -89.15625 51.421875 -89.15625 C 46.710938 -89.15625 42.773438 -88.015625 39.609375 -85.734375 C 36.441406 -83.453125 34.003906 -79.625 32.296875 -74.25 C 30.585938 -68.875 29.734375 -61.671875 29.734375 -52.640625 C 29.734375 -43.617188 30.585938 -36.414062 32.296875 -31.03125 C 34.003906 -25.65625 36.441406 -21.828125 39.609375 -19.546875 C 42.773438 -17.265625 46.710938 -16.125 51.421875 -16.125 Z M 51.421875 -16.125 "/></g></g></g><g fill="#737373" fill-opacity="1"><g transform="translate(294.540581, 184.449812)"><g><path d="M 47.453125 -60.921875 L 71.296875 -60.921875 L 71.296875 -44.359375 L 47.453125 -44.359375 L 47.453125 -20.15625 L 30.171875 -20.15625 L 30.171875 -44.359375 L 6.265625 -44.359375 L 6.265625 -60.921875 L 30.171875 -60.921875 L 30.171875 -85.125 L 47.453125 -85.125 Z M 47.453125 -60.921875 "/></g></g></g><g fill="#737373" fill-opacity="1"><g transform="translate(73.054687, 319.449803)"><g><path d="M 31.03125 0.84375 C 22.96875 0.84375 16.988281 -1.070312 13.09375 -4.90625 C 9.195312 -8.738281 7.25 -14.414062 7.25 -21.9375 L 7.25 -58.53125 L 18.578125 -58.53125 L 18.578125 -22.015625 C 18.578125 -17.742188 19.601562 -14.539062 21.65625 -12.40625 C 23.71875 -10.269531 26.84375 -9.203125 31.03125 -9.203125 C 39.332031 -9.203125 43.484375 -13.472656 43.484375 -22.015625 L 43.484375 -58.53125 L 54.8125 -58.53125 L 54.8125 -21.9375 C 54.8125 -14.414062 52.863281 -8.738281 48.96875 -4.90625 C 45.070312 -1.070312 39.09375 0.84375 31.03125 0.84375 Z M 31.03125 0.84375 "/></g></g></g><g fill="#737373" fill-opacity="1"><g transform="translate(135.117183, 319.449803)"><g><path d="M 20.65625 0.84375 C 17.644531 0.84375 14.882812 0.488281 12.375 -0.21875 C 9.863281 -0.925781 7.71875 -1.898438 5.9375 -3.140625 C 4.164062 -4.378906 2.851562 -5.800781 2 -7.40625 L 8.171875 -14.046875 L 9.015625 -14.046875 C 10.484375 -12.078125 12.21875 -10.597656 14.21875 -9.609375 C 16.21875 -8.617188 18.390625 -8.125 20.734375 -8.125 C 22.898438 -8.125 24.53125 -8.507812 25.625 -9.28125 C 26.71875 -10.0625 27.265625 -11.171875 27.265625 -12.609375 C 27.265625 -13.734375 26.867188 -14.675781 26.078125 -15.4375 C 25.296875 -16.195312 24.023438 -16.789062 22.265625 -17.21875 L 16.421875 -18.625 C 12.035156 -19.664062 8.832031 -21.257812 6.8125 -23.40625 C 4.800781 -25.550781 3.796875 -28.28125 3.796875 -31.59375 C 3.796875 -34.34375 4.5 -36.726562 5.90625 -38.75 C 7.3125 -40.78125 9.285156 -42.328125 11.828125 -43.390625 C 14.378906 -44.460938 17.347656 -45 20.734375 -45 C 24.710938 -45 28.007812 -44.425781 30.625 -43.28125 C 33.238281 -42.132812 35.28125 -40.597656 36.75 -38.671875 L 30.828125 -32.265625 L 30.03125 -32.265625 C 28.800781 -33.660156 27.414062 -34.675781 25.875 -35.3125 C 24.34375 -35.957031 22.628906 -36.28125 20.734375 -36.28125 C 16.359375 -36.28125 14.171875 -34.914062 14.171875 -32.1875 C 14.171875 -31.039062 14.578125 -30.109375 15.390625 -29.390625 C 16.203125 -28.671875 17.640625 -28.082031 19.703125 -27.625 L 25.140625 -26.421875 C 29.628906 -25.460938 32.90625 -23.921875 34.96875 -21.796875 C 37.039062 -19.679688 38.078125 -16.832031 38.078125 -13.25 C 38.078125 -10.445312 37.378906 -7.976562 35.984375 -5.84375 C 34.597656 -3.707031 32.597656 -2.054688 29.984375 -0.890625 C 27.367188 0.265625 24.257812 0.84375 20.65625 0.84375 Z M 20.65625 0.84375 "/></g></g></g><g fill="#737373" fill-opacity="1"><g transform="translate(175.834973, 319.449803)"><g><path d="M 43.640625 -19.578125 L 15.25 -19.578125 C 15.570312 -15.734375 16.664062 -12.9375 18.53125 -11.1875 C 20.40625 -9.4375 22.957031 -8.5625 26.1875 -8.5625 C 28.71875 -8.5625 30.769531 -9.035156 32.34375 -9.984375 C 33.925781 -10.929688 35.195312 -12.367188 36.15625 -14.296875 L 37 -14.296875 L 44.359375 -9.5625 C 42.921875 -6.46875 40.742188 -3.957031 37.828125 -2.03125 C 34.921875 -0.113281 31.039062 0.84375 26.1875 0.84375 C 21.625 0.84375 17.679688 -0.0195312 14.359375 -1.75 C 11.035156 -3.488281 8.472656 -6.070312 6.671875 -9.5 C 4.867188 -12.9375 3.96875 -17.125 3.96875 -22.0625 C 3.96875 -27.082031 4.914062 -31.3125 6.8125 -34.75 C 8.707031 -38.195312 11.269531 -40.765625 14.5 -42.453125 C 17.726562 -44.148438 21.359375 -45 25.390625 -45 C 31.628906 -45 36.410156 -43.34375 39.734375 -40.03125 C 43.054688 -36.726562 44.71875 -31.875 44.71875 -25.46875 C 44.71875 -23.144531 44.640625 -21.34375 44.484375 -20.0625 Z M 34.109375 -26.75 C 34.003906 -30.113281 33.222656 -32.5625 31.765625 -34.09375 C 30.316406 -35.625 28.191406 -36.390625 25.390625 -36.390625 C 19.785156 -36.390625 16.488281 -33.175781 15.5 -26.75 Z M 34.109375 -26.75 "/></g></g></g><g fill="#737373" fill-opacity="1"><g transform="translate(223.839525, 319.449803)"><g><path d="M 6.359375 0 L 6.359375 -44.15625 L 17.140625 -44.15625 L 17.140625 -37.59375 L 17.984375 -37.4375 C 19.046875 -39.894531 20.441406 -41.695312 22.171875 -42.84375 C 23.910156 -43.988281 26.023438 -44.5625 28.515625 -44.5625 C 31.015625 -44.5625 32.921875 -44.132812 34.234375 -43.28125 L 32.359375 -33.71875 L 31.515625 -33.546875 C 30.796875 -33.847656 30.097656 -34.0625 29.421875 -34.1875 C 28.753906 -34.320312 27.941406 -34.390625 26.984375 -34.390625 C 23.890625 -34.390625 21.523438 -33.300781 19.890625 -31.125 C 18.265625 -28.957031 17.453125 -25.46875 17.453125 -20.65625 L 17.453125 0 Z M 6.359375 0 "/></g></g></g><g fill="#737373" fill-opacity="1"><g transform="translate(258.471667, 319.449803)"><g><path d="M 20.65625 0.84375 C 17.644531 0.84375 14.882812 0.488281 12.375 -0.21875 C 9.863281 -0.925781 7.71875 -1.898438 5.9375 -3.140625 C 4.164062 -4.378906 2.851562 -5.800781 2 -7.40625 L 8.171875 -14.046875 L 9.015625 -14.046875 C 10.484375 -12.078125 12.21875 -10.597656 14.21875 -9.609375 C 16.21875 -8.617188 18.390625 -8.125 20.734375 -8.125 C 22.898438 -8.125 24.53125 -8.507812 25.625 -9.28125 C 26.71875 -10.0625 27.265625 -11.171875 27.265625 -12.609375 C 27.265625 -13.734375 26.867188 -14.675781 26.078125 -15.4375 C 25.296875 -16.195312 24.023438 -16.789062 22.265625 -17.21875 L 16.421875 -18.625 C 12.035156 -19.664062 8.832031 -21.257812 6.8125 -23.40625 C 4.800781 -25.550781 3.796875 -28.28125 3.796875 -31.59375 C 3.796875 -34.34375 4.5 -36.726562 5.90625 -38.75 C 7.3125 -40.78125 9.285156 -42.328125 11.828125 -43.390625 C 14.378906 -44.460938 17.347656 -45 20.734375 -45 C 24.710938 -45 28.007812 -44.425781 30.625 -43.28125 C 33.238281 -42.132812 35.28125 -40.597656 36.75 -38.671875 L 30.828125 -32.265625 L 30.03125 -32.265625 C 28.800781 -33.660156 27.414062 -34.675781 25.875 -35.3125 C 24.34375 -35.957031 22.628906 -36.28125 20.734375 -36.28125 C 16.359375 -36.28125 14.171875 -34.914062 14.171875 -32.1875 C 14.171875 -31.039062 14.578125 -30.109375 15.390625 -29.390625 C 16.203125 -28.671875 17.640625 -28.082031 19.703125 -27.625 L 25.140625 -26.421875 C 29.628906 -25.460938 32.90625 -23.921875 34.96875 -21.796875 C 37.039062 -19.679688 38.078125 -16.832031 38.078125 -13.25 C 38.078125 -10.445312 37.378906 -7.976562 35.984375 -5.84375 C 34.597656 -3.707031 32.597656 -2.054688 29.984375 -0.890625 C 27.367188 0.265625 24.257812 0.84375 20.65625 0.84375 Z M 20.65625 0.84375 "/></g></g></g></svg>