<svg xmlns="http://www.w3.org/2000/svg" xmlns:xlink="http://www.w3.org/1999/xlink" width="800" zoomAndPan="magnify" viewBox="0 0 600 299.999988" height="400" preserveAspectRatio="xMidYMid meet" version="1.0"><defs><g/></defs><g fill="#a6a6a6" fill-opacity="1"><g transform="translate(93.691411, 162.375774)"><g><path d="M 48.609375 1.671875 C 36.953125 1.671875 27.703125 -0.773438 20.859375 -5.671875 C 14.023438 -10.566406 9.570312 -17.40625 7.5 -26.1875 L 24.984375 -33.921875 L 26.828125 -33.609375 C 28.523438 -28.441406 31.0625 -24.554688 34.4375 -21.953125 C 37.820312 -19.347656 42.46875 -18.046875 48.375 -18.046875 C 54.4375 -18.046875 59.117188 -19.773438 62.421875 -23.234375 C 65.722656 -26.691406 67.375 -31.851562 67.375 -38.71875 C 67.375 -45.53125 65.738281 -50.691406 62.46875 -54.203125 C 59.195312 -57.710938 54.738281 -59.46875 49.09375 -59.46875 C 44.78125 -59.46875 41.160156 -58.535156 38.234375 -56.671875 C 35.304688 -54.804688 32.859375 -52.039062 30.890625 -48.375 L 11.8125 -49.734375 L 14.203125 -116.703125 L 83.65625 -116.703125 L 83.65625 -97.3125 L 33.609375 -97.3125 L 32.484375 -67.53125 L 34.171875 -67.21875 C 36.878906 -70.78125 40.125 -73.476562 43.90625 -75.3125 C 47.6875 -77.144531 52.238281 -78.0625 57.5625 -78.0625 C 64.207031 -78.0625 70.015625 -76.582031 74.984375 -73.625 C 79.960938 -70.675781 83.8125 -66.289062 86.53125 -60.46875 C 89.25 -54.644531 90.609375 -47.523438 90.609375 -39.109375 C 90.609375 -30.546875 88.96875 -23.21875 85.6875 -17.125 C 82.414062 -11.03125 77.640625 -6.375 71.359375 -3.15625 C 65.078125 0.0625 57.492188 1.671875 48.609375 1.671875 Z M 48.609375 1.671875 "/></g></g></g><g fill="#a6a6a6" fill-opacity="1"><g transform="translate(192.032772, 162.375774)"><g><path d="M 57 1.671875 C 47.46875 1.671875 39.175781 -0.441406 32.125 -4.671875 C 25.070312 -8.898438 19.585938 -15.484375 15.671875 -24.421875 C 11.765625 -33.367188 9.8125 -44.679688 9.8125 -58.359375 C 9.8125 -72.035156 11.765625 -83.34375 15.671875 -92.28125 C 19.585938 -101.21875 25.070312 -107.800781 32.125 -112.03125 C 39.175781 -116.257812 47.46875 -118.375 57 -118.375 C 66.570312 -118.375 74.882812 -116.257812 81.9375 -112.03125 C 88.988281 -107.800781 94.46875 -101.21875 98.375 -92.28125 C 102.289062 -83.34375 104.25 -72.035156 104.25 -58.359375 C 104.25 -44.679688 102.289062 -33.367188 98.375 -24.421875 C 94.46875 -15.484375 88.988281 -8.898438 81.9375 -4.671875 C 74.882812 -0.441406 66.570312 1.671875 57 1.671875 Z M 57 -17.875 C 62.207031 -17.875 66.566406 -19.140625 70.078125 -21.671875 C 73.597656 -24.203125 76.300781 -28.445312 78.1875 -34.40625 C 80.082031 -40.363281 81.03125 -48.347656 81.03125 -58.359375 C 81.03125 -68.359375 80.082031 -76.335938 78.1875 -82.296875 C 76.300781 -88.253906 73.597656 -92.5 70.078125 -95.03125 C 66.566406 -97.5625 62.207031 -98.828125 57 -98.828125 C 51.78125 -98.828125 47.414062 -97.5625 43.90625 -95.03125 C 40.394531 -92.5 37.691406 -88.253906 35.796875 -82.296875 C 33.910156 -76.335938 32.96875 -68.359375 32.96875 -58.359375 C 32.96875 -48.347656 33.910156 -40.363281 35.796875 -34.40625 C 37.691406 -28.445312 40.394531 -24.203125 43.90625 -21.671875 C 47.414062 -19.140625 51.78125 -17.875 57 -17.875 Z M 57 -17.875 "/></g></g></g><g fill="#a6a6a6" fill-opacity="1"><g transform="translate(306.099184, 162.375774)"><g><path d="M 57 1.671875 C 47.46875 1.671875 39.175781 -0.441406 32.125 -4.671875 C 25.070312 -8.898438 19.585938 -15.484375 15.671875 -24.421875 C 11.765625 -33.367188 9.8125 -44.679688 9.8125 -58.359375 C 9.8125 -72.035156 11.765625 -83.34375 15.671875 -92.28125 C 19.585938 -101.21875 25.070312 -107.800781 32.125 -112.03125 C 39.175781 -116.257812 47.46875 -118.375 57 -118.375 C 66.570312 -118.375 74.882812 -116.257812 81.9375 -112.03125 C 88.988281 -107.800781 94.46875 -101.21875 98.375 -92.28125 C 102.289062 -83.34375 104.25 -72.035156 104.25 -58.359375 C 104.25 -44.679688 102.289062 -33.367188 98.375 -24.421875 C 94.46875 -15.484375 88.988281 -8.898438 81.9375 -4.671875 C 74.882812 -0.441406 66.570312 1.671875 57 1.671875 Z M 57 -17.875 C 62.207031 -17.875 66.566406 -19.140625 70.078125 -21.671875 C 73.597656 -24.203125 76.300781 -28.445312 78.1875 -34.40625 C 80.082031 -40.363281 81.03125 -48.347656 81.03125 -58.359375 C 81.03125 -68.359375 80.082031 -76.335938 78.1875 -82.296875 C 76.300781 -88.253906 73.597656 -92.5 70.078125 -95.03125 C 66.566406 -97.5625 62.207031 -98.828125 57 -98.828125 C 51.78125 -98.828125 47.414062 -97.5625 43.90625 -95.03125 C 40.394531 -92.5 37.691406 -88.253906 35.796875 -82.296875 C 33.910156 -76.335938 32.96875 -68.359375 32.96875 -58.359375 C 32.96875 -48.347656 33.910156 -40.363281 35.796875 -34.40625 C 37.691406 -28.445312 40.394531 -24.203125 43.90625 -21.671875 C 47.414062 -19.140625 51.78125 -17.875 57 -17.875 Z M 57 -17.875 "/></g></g></g><g fill="#a6a6a6" fill-opacity="1"><g transform="translate(420.165596, 162.375774)"><g><path d="M 52.609375 -67.53125 L 79.03125 -67.53125 L 79.03125 -49.171875 L 52.609375 -49.171875 L 52.609375 -22.34375 L 33.453125 -22.34375 L 33.453125 -49.171875 L 6.9375 -49.171875 L 6.9375 -67.53125 L 33.453125 -67.53125 L 33.453125 -94.359375 L 52.609375 -94.359375 Z M 52.609375 -67.53125 "/></g></g></g><g fill="#a6a6a6" fill-opacity="1"><g transform="translate(196.593746, 293.625763)"><g><path d="M 28.375 0.765625 C 21.007812 0.765625 15.539062 -0.984375 11.96875 -4.484375 C 8.40625 -7.984375 6.625 -13.175781 6.625 -20.0625 L 6.625 -53.546875 L 17 -53.546875 L 17 -20.140625 C 17 -16.234375 17.9375 -13.300781 19.8125 -11.34375 C 21.6875 -9.394531 24.539062 -8.421875 28.375 -8.421875 C 35.96875 -8.421875 39.765625 -12.328125 39.765625 -20.140625 L 39.765625 -53.546875 L 50.140625 -53.546875 L 50.140625 -20.0625 C 50.140625 -13.175781 48.351562 -7.984375 44.78125 -4.484375 C 41.21875 -0.984375 35.75 0.765625 28.375 0.765625 Z M 28.375 0.765625 "/></g></g></g><g fill="#a6a6a6" fill-opacity="1"><g transform="translate(253.347651, 293.625763)"><g><path d="M 18.890625 0.765625 C 16.140625 0.765625 13.613281 0.441406 11.3125 -0.203125 C 9.019531 -0.847656 7.0625 -1.738281 5.4375 -2.875 C 3.8125 -4.007812 2.609375 -5.3125 1.828125 -6.78125 L 7.46875 -12.859375 L 8.234375 -12.859375 C 9.578125 -11.046875 11.164062 -9.6875 13 -8.78125 C 14.832031 -7.882812 16.820312 -7.4375 18.96875 -7.4375 C 20.945312 -7.4375 22.4375 -7.789062 23.4375 -8.5 C 24.4375 -9.207031 24.9375 -10.21875 24.9375 -11.53125 C 24.9375 -12.5625 24.578125 -13.421875 23.859375 -14.109375 C 23.140625 -14.804688 21.972656 -15.351562 20.359375 -15.75 L 15.015625 -17.03125 C 11.015625 -17.976562 8.09375 -19.4375 6.25 -21.40625 C 4.40625 -23.375 3.484375 -25.867188 3.484375 -28.890625 C 3.484375 -31.410156 4.125 -33.597656 5.40625 -35.453125 C 6.6875 -37.304688 8.488281 -38.71875 10.8125 -39.6875 C 13.144531 -40.664062 15.863281 -41.15625 18.96875 -41.15625 C 22.601562 -41.15625 25.617188 -40.628906 28.015625 -39.578125 C 30.410156 -38.535156 32.28125 -37.132812 33.625 -35.375 L 28.203125 -29.515625 L 27.46875 -29.515625 C 26.34375 -30.785156 25.078125 -31.710938 23.671875 -32.296875 C 22.265625 -32.878906 20.695312 -33.171875 18.96875 -33.171875 C 14.96875 -33.171875 12.96875 -31.925781 12.96875 -29.4375 C 12.96875 -28.394531 13.335938 -27.539062 14.078125 -26.875 C 14.828125 -26.21875 16.140625 -25.679688 18.015625 -25.265625 L 23 -24.171875 C 27.101562 -23.296875 30.097656 -21.882812 31.984375 -19.9375 C 33.878906 -18 34.828125 -15.394531 34.828125 -12.125 C 34.828125 -9.5625 34.191406 -7.300781 32.921875 -5.34375 C 31.648438 -3.394531 29.816406 -1.890625 27.421875 -0.828125 C 25.035156 0.234375 22.191406 0.765625 18.890625 0.765625 Z M 18.890625 0.765625 "/></g></g></g><g fill="#a6a6a6" fill-opacity="1"><g transform="translate(290.585487, 293.625763)"><g><path d="M 39.921875 -17.90625 L 13.953125 -17.90625 C 14.242188 -14.394531 15.242188 -11.835938 16.953125 -10.234375 C 18.660156 -8.640625 20.992188 -7.84375 23.953125 -7.84375 C 26.265625 -7.84375 28.140625 -8.273438 29.578125 -9.140625 C 31.023438 -10.003906 32.1875 -11.316406 33.0625 -13.078125 L 33.84375 -13.078125 L 40.578125 -8.75 C 39.253906 -5.914062 37.257812 -3.617188 34.59375 -1.859375 C 31.9375 -0.109375 28.390625 0.765625 23.953125 0.765625 C 19.773438 0.765625 16.164062 -0.0234375 13.125 -1.609375 C 10.082031 -3.191406 7.738281 -5.550781 6.09375 -8.6875 C 4.445312 -11.832031 3.625 -15.660156 3.625 -20.171875 C 3.625 -24.765625 4.488281 -28.632812 6.21875 -31.78125 C 7.957031 -34.9375 10.300781 -37.285156 13.25 -38.828125 C 16.207031 -40.378906 19.53125 -41.15625 23.21875 -41.15625 C 28.925781 -41.15625 33.300781 -39.640625 36.34375 -36.609375 C 39.382812 -33.585938 40.90625 -29.148438 40.90625 -23.296875 C 40.90625 -21.171875 40.832031 -19.519531 40.6875 -18.34375 Z M 31.203125 -24.46875 C 31.109375 -27.539062 30.394531 -29.773438 29.0625 -31.171875 C 27.726562 -32.578125 25.78125 -33.28125 23.21875 -33.28125 C 18.09375 -33.28125 15.078125 -30.34375 14.171875 -24.46875 Z M 31.203125 -24.46875 "/></g></g></g><g fill="#a6a6a6" fill-opacity="1"><g transform="translate(334.48732, 293.625763)"><g><path d="M 5.828125 0 L 5.828125 -40.390625 L 15.671875 -40.390625 L 15.671875 -34.390625 L 16.4375 -34.234375 C 17.414062 -36.484375 18.695312 -38.132812 20.28125 -39.1875 C 21.875 -40.238281 23.804688 -40.765625 26.078125 -40.765625 C 28.367188 -40.765625 30.113281 -40.375 31.3125 -39.59375 L 29.59375 -30.828125 L 28.828125 -30.6875 C 28.160156 -30.957031 27.519531 -31.148438 26.90625 -31.265625 C 26.300781 -31.390625 25.5625 -31.453125 24.6875 -31.453125 C 21.851562 -31.453125 19.691406 -30.457031 18.203125 -28.46875 C 16.710938 -26.476562 15.96875 -23.285156 15.96875 -18.890625 L 15.96875 0 Z M 5.828125 0 "/></g></g></g><g fill="#a6a6a6" fill-opacity="1"><g transform="translate(366.15962, 293.625763)"><g><path d="M 18.890625 0.765625 C 16.140625 0.765625 13.613281 0.441406 11.3125 -0.203125 C 9.019531 -0.847656 7.0625 -1.738281 5.4375 -2.875 C 3.8125 -4.007812 2.609375 -5.3125 1.828125 -6.78125 L 7.46875 -12.859375 L 8.234375 -12.859375 C 9.578125 -11.046875 11.164062 -9.6875 13 -8.78125 C 14.832031 -7.882812 16.820312 -7.4375 18.96875 -7.4375 C 20.945312 -7.4375 22.4375 -7.789062 23.4375 -8.5 C 24.4375 -9.207031 24.9375 -10.21875 24.9375 -11.53125 C 24.9375 -12.5625 24.578125 -13.421875 23.859375 -14.109375 C 23.140625 -14.804688 21.972656 -15.351562 20.359375 -15.75 L 15.015625 -17.03125 C 11.015625 -17.976562 8.09375 -19.4375 6.25 -21.40625 C 4.40625 -23.375 3.484375 -25.867188 3.484375 -28.890625 C 3.484375 -31.410156 4.125 -33.597656 5.40625 -35.453125 C 6.6875 -37.304688 8.488281 -38.71875 10.8125 -39.6875 C 13.144531 -40.664062 15.863281 -41.15625 18.96875 -41.15625 C 22.601562 -41.15625 25.617188 -40.628906 28.015625 -39.578125 C 30.410156 -38.535156 32.28125 -37.132812 33.625 -35.375 L 28.203125 -29.515625 L 27.46875 -29.515625 C 26.34375 -30.785156 25.078125 -31.710938 23.671875 -32.296875 C 22.265625 -32.878906 20.695312 -33.171875 18.96875 -33.171875 C 14.96875 -33.171875 12.96875 -31.925781 12.96875 -29.4375 C 12.96875 -28.394531 13.335938 -27.539062 14.078125 -26.875 C 14.828125 -26.21875 16.140625 -25.679688 18.015625 -25.265625 L 23 -24.171875 C 27.101562 -23.296875 30.097656 -21.882812 31.984375 -19.9375 C 33.878906 -18 34.828125 -15.394531 34.828125 -12.125 C 34.828125 -9.5625 34.191406 -7.300781 32.921875 -5.34375 C 31.648438 -3.394531 29.816406 -1.890625 27.421875 -0.828125 C 25.035156 0.234375 22.191406 0.765625 18.890625 0.765625 Z M 18.890625 0.765625 "/></g></g></g></svg>