<svg xmlns="http://www.w3.org/2000/svg" xmlns:xlink="http://www.w3.org/1999/xlink" width="1000" zoomAndPan="magnify" viewBox="0 0 750 225" height="300" preserveAspectRatio="xMidYMid meet" version="1.0"><defs><clipPath id="229fff1d6d"><path d="M 12.886719 26.230469 L 185.425781 26.230469 L 185.425781 198.769531 L 12.886719 198.769531 Z M 12.886719 26.230469 " clip-rule="nonzero"/></clipPath><clipPath id="4a0e6ffe0b"><path d="M 99.15625 26.230469 C 51.511719 26.230469 12.886719 64.855469 12.886719 112.5 C 12.886719 160.144531 51.511719 198.769531 99.15625 198.769531 C 146.800781 198.769531 185.425781 160.144531 185.425781 112.5 C 185.425781 64.855469 146.800781 26.230469 99.15625 26.230469 Z M 99.15625 26.230469 " clip-rule="nonzero"/></clipPath><clipPath id="a70154f0bd"><path d="M 564.574219 26.230469 L 737.113281 26.230469 L 737.113281 198.769531 L 564.574219 198.769531 Z M 564.574219 26.230469 " clip-rule="nonzero"/></clipPath><clipPath id="2df3fa150e"><path d="M 650.84375 26.230469 C 603.199219 26.230469 564.574219 64.855469 564.574219 112.5 C 564.574219 160.144531 603.199219 198.769531 650.84375 198.769531 C 698.488281 198.769531 737.113281 160.144531 737.113281 112.5 C 737.113281 64.855469 698.488281 26.230469 650.84375 26.230469 Z M 650.84375 26.230469 " clip-rule="nonzero"/></clipPath><clipPath id="c5fb6e98c3"><path d="M 99.15625 26.230469 L 650.84375 26.230469 L 650.84375 198.769531 L 99.15625 198.769531 Z M 99.15625 26.230469 " clip-rule="nonzero"/></clipPath><clipPath id="530e2c852c"><path d="M 74 40.824219 L 139 40.824219 L 139 158 L 74 158 Z M 74 40.824219 " clip-rule="nonzero"/></clipPath><clipPath id="218d05c5cc"><path d="M 36.109375 89 L 99 89 L 99 158 L 36.109375 158 Z M 36.109375 89 " clip-rule="nonzero"/></clipPath></defs><g clip-path="url(#229fff1d6d)"><g clip-path="url(#4a0e6ffe0b)"><path fill="#ffffff" d="M 12.886719 26.230469 L 185.425781 26.230469 L 185.425781 198.769531 L 12.886719 198.769531 Z M 12.886719 26.230469 " fill-opacity="1" fill-rule="nonzero"/></g></g><g clip-path="url(#a70154f0bd)"><g clip-path="url(#2df3fa150e)"><path fill="#ffffff" d="M 564.574219 26.230469 L 737.113281 26.230469 L 737.113281 198.769531 L 564.574219 198.769531 Z M 564.574219 26.230469 " fill-opacity="1" fill-rule="nonzero"/></g></g><g clip-path="url(#c5fb6e98c3)"><path fill="#ffffff" d="M 99.15625 26.230469 L 650.84375 26.230469 L 650.84375 198.769531 L 99.15625 198.769531 Z M 99.15625 26.230469 " fill-opacity="1" fill-rule="nonzero"/></g><path fill="#072654" d="M 197.71875 94.941406 C 196.648438 98.929688 194.578125 101.855469 191.5 103.722656 C 188.421875 105.589844 184.101562 106.523438 178.53125 106.523438 L 160.835938 106.523438 L 167.046875 83.363281 L 184.746094 83.363281 C 190.3125 83.363281 194.132812 84.296875 196.210938 86.164062 C 198.28125 88.035156 198.789062 90.960938 197.71875 94.941406 M 216.046875 94.445312 C 218.296875 86.0625 217.363281 79.628906 213.246094 75.148438 C 209.132812 70.664062 201.921875 68.425781 191.621094 68.425781 L 152.117188 68.425781 L 128.339844 157.070312 L 147.53125 157.070312 L 157.117188 121.335938 L 169.703125 121.335938 C 172.527344 121.335938 174.75 121.792969 176.375 122.707031 C 178.003906 123.621094 178.957031 125.242188 179.25 127.5625 L 182.671875 157.070312 L 203.238281 157.070312 L 199.902344 129.554688 C 199.222656 123.414062 196.410156 119.804688 191.464844 118.722656 C 197.769531 116.898438 203.046875 113.867188 207.300781 109.632812 C 211.546875 105.402344 214.464844 100.339844 216.046875 94.445312 " fill-opacity="1" fill-rule="evenodd"/><path fill="#072654" d="M 262.691406 125.320312 C 261.089844 131.296875 258.617188 135.863281 255.28125 139.015625 C 251.941406 142.171875 247.945312 143.746094 243.296875 143.746094 C 238.554688 143.746094 235.339844 142.191406 233.644531 139.078125 C 231.941406 135.96875 231.882812 131.464844 233.464844 125.570312 C 235.042969 119.679688 237.5625 115.074219 241.03125 111.75 C 244.496094 108.433594 248.554688 106.769531 253.210938 106.769531 C 257.859375 106.769531 261.007812 108.371094 262.640625 111.566406 C 264.277344 114.761719 264.296875 119.34375 262.691406 125.320312 Z M 271.105469 93.949219 L 268.703125 102.910156 C 267.660156 99.675781 265.652344 97.101562 262.675781 95.195312 C 259.695312 93.285156 256.003906 92.328125 251.601562 92.328125 C 246.199219 92.328125 241.007812 93.71875 236.027344 96.5 C 231.042969 99.28125 226.6875 103.203125 222.960938 108.265625 C 219.238281 113.328125 216.503906 119.097656 214.769531 125.570312 C 213.03125 132.046875 212.683594 137.753906 213.726562 142.6875 C 214.773438 147.628906 217.035156 151.425781 220.519531 154.082031 C 224.003906 156.738281 228.488281 158.066406 233.96875 158.066406 C 238.371094 158.066406 242.566406 157.152344 246.546875 155.324219 C 250.523438 153.503906 253.902344 150.96875 256.683594 147.730469 L 254.175781 157.070312 L 272.742188 157.070312 L 289.671875 93.949219 Z M 271.105469 93.949219 " fill-opacity="1" fill-rule="evenodd"/><path fill="#072654" d="M 356.4375 93.949219 L 302.476562 93.949219 L 298.703125 108.015625 L 330.109375 108.015625 L 288.585938 143.871094 L 285.042969 157.070312 L 340.75 157.070312 L 344.527344 143 L 310.882812 143 L 353.03125 106.644531 Z M 356.4375 93.949219 " fill-opacity="1" fill-rule="evenodd"/><path fill="#072654" d="M 403.945312 125.199219 C 402.277344 131.421875 399.800781 136.074219 396.527344 139.144531 C 393.253906 142.214844 389.292969 143.746094 384.640625 143.746094 C 374.917969 143.746094 371.71875 137.566406 375.035156 125.199219 C 376.683594 119.054688 379.171875 114.429688 382.496094 111.316406 C 385.824219 108.203125 389.851562 106.644531 394.589844 106.644531 C 399.238281 106.644531 402.375 108.203125 403.992188 111.316406 C 405.609375 114.429688 405.597656 119.054688 403.945312 125.199219 M 414.808594 96.3125 C 410.535156 93.65625 405.078125 92.328125 398.429688 92.328125 C 391.699219 92.328125 385.464844 93.65625 379.726562 96.3125 C 373.984375 98.96875 369.097656 102.789062 365.066406 107.765625 C 361.03125 112.746094 358.121094 118.554688 356.339844 125.199219 C 354.554688 131.839844 354.347656 137.644531 355.71875 142.628906 C 357.082031 147.609375 359.914062 151.425781 364.234375 154.082031 C 368.546875 156.738281 374.070312 158.066406 380.800781 158.066406 C 387.449219 158.066406 393.617188 156.738281 399.316406 154.082031 C 405.007812 151.425781 409.878906 147.609375 413.914062 142.628906 C 417.945312 137.644531 420.855469 131.839844 422.640625 125.199219 C 424.421875 118.554688 424.628906 112.746094 423.265625 107.765625 C 421.898438 102.789062 419.078125 98.96875 414.808594 96.3125 " fill-opacity="1" fill-rule="evenodd"/><path fill="#072654" d="M 609.015625 125.320312 C 607.410156 131.296875 604.941406 135.863281 601.605469 139.015625 C 598.269531 142.171875 594.265625 143.746094 589.613281 143.746094 C 584.882812 143.746094 581.660156 142.191406 579.964844 139.078125 C 578.261719 135.96875 578.203125 131.464844 579.789062 125.570312 C 581.367188 119.679688 583.886719 115.074219 587.355469 111.75 C 590.820312 108.433594 594.878906 106.769531 599.53125 106.769531 C 604.183594 106.769531 607.332031 108.371094 608.964844 111.566406 C 610.597656 114.761719 610.621094 119.34375 609.015625 125.320312 Z M 617.429688 93.949219 L 615.023438 102.910156 C 613.984375 99.675781 611.976562 97.101562 609 95.195312 C 606.019531 93.285156 602.328125 92.328125 597.925781 92.328125 C 592.523438 92.328125 587.332031 93.71875 582.351562 96.5 C 577.367188 99.28125 573.011719 103.203125 569.285156 108.265625 C 565.558594 113.328125 562.828125 119.097656 561.09375 125.570312 C 559.355469 132.046875 559.011719 137.753906 560.050781 142.6875 C 561.097656 147.628906 563.355469 151.425781 566.84375 154.082031 C 570.328125 156.738281 574.8125 158.066406 580.292969 158.066406 C 584.695312 158.066406 588.890625 157.152344 592.867188 155.324219 C 596.847656 153.503906 600.226562 150.96875 603.007812 147.730469 L 600.5 157.070312 L 619.066406 157.070312 L 635.996094 93.949219 Z M 617.429688 93.949219 " fill-opacity="1" fill-rule="evenodd"/><path fill="#072654" d="M 481.011719 110.878906 L 485.742188 93.699219 C 484.136719 92.867188 482.003906 92.453125 479.347656 92.453125 C 475.109375 92.453125 471.027344 93.511719 467.09375 95.628906 C 463.714844 97.445312 460.839844 99.996094 458.410156 103.191406 L 460.871094 93.9375 L 455.496094 93.949219 L 442.3125 93.949219 L 425.25 157.070312 L 444.074219 157.070312 L 452.921875 124.078125 C 454.210938 119.265625 456.523438 115.507812 459.871094 112.8125 C 463.207031 110.113281 467.371094 108.765625 472.355469 108.765625 C 475.433594 108.765625 478.3125 109.46875 481.011719 110.878906 " fill-opacity="1" fill-rule="evenodd"/><path fill="#072654" d="M 533.410156 125.570312 C 531.824219 131.464844 529.371094 135.964844 526.046875 139.078125 C 522.714844 142.191406 518.726562 143.746094 514.078125 143.746094 C 509.425781 143.746094 506.253906 142.171875 504.566406 139.015625 C 502.875 135.863281 502.835938 131.296875 504.4375 125.320312 C 506.042969 119.34375 508.535156 114.757812 511.925781 111.5625 C 515.316406 108.371094 519.34375 106.769531 523.996094 106.769531 C 528.5625 106.769531 531.667969 108.433594 533.3125 111.75 C 534.953125 115.070312 534.988281 119.679688 533.410156 125.570312 M 546.5625 96.5 C 543.070312 93.71875 538.621094 92.328125 533.226562 92.328125 C 528.488281 92.328125 523.980469 93.410156 519.710938 95.566406 C 515.429688 97.726562 511.960938 100.667969 509.300781 104.40625 L 509.359375 103.992188 L 512.523438 93.9375 L 508.882812 93.9375 L 508.882812 93.945312 L 494.148438 93.945312 L 489.46875 111.402344 C 489.414062 111.605469 489.367188 111.792969 489.3125 112 L 470.011719 183.960938 L 488.835938 183.960938 L 498.554688 147.734375 C 499.503906 150.96875 501.488281 153.5 504.488281 155.324219 C 507.488281 157.152344 511.191406 158.0625 515.59375 158.0625 C 521.078125 158.0625 526.292969 156.738281 531.246094 154.082031 C 536.195312 151.425781 540.496094 147.628906 544.144531 142.6875 C 547.792969 137.753906 550.488281 132.046875 552.226562 125.570312 C 553.960938 119.097656 554.320312 113.328125 553.316406 108.265625 C 552.308594 103.203125 550.054688 99.28125 546.5625 96.5 " fill-opacity="1" fill-rule="evenodd"/><path fill="#072654" d="M 713.929688 93.964844 L 713.941406 93.949219 L 702.542969 93.949219 C 702.179688 93.949219 701.859375 93.957031 701.523438 93.964844 L 695.609375 93.964844 L 692.582031 98.175781 C 692.339844 98.492188 692.097656 98.8125 691.835938 99.183594 L 691.507812 99.671875 L 667.460938 133.125 L 662.476562 93.949219 L 642.78125 93.949219 L 652.753906 153.480469 L 630.730469 183.960938 L 650.351562 183.960938 L 655.691406 176.40625 C 655.847656 176.183594 655.980469 176 656.148438 175.761719 L 662.378906 166.9375 L 662.558594 166.683594 L 690.429688 127.214844 L 713.914062 93.992188 L 713.941406 93.964844 Z M 713.929688 93.964844 " fill-opacity="1" fill-rule="evenodd"/><g clip-path="url(#530e2c852c)"><path fill="#3395ff" d="M 79.96875 78.582031 L 74.335938 99.292969 L 106.574219 78.464844 L 85.492188 157.050781 L 106.902344 157.070312 L 138.046875 40.996094 Z M 79.96875 78.582031 " fill-opacity="1" fill-rule="evenodd"/></g><g clip-path="url(#218d05c5cc)"><path fill="#072654" d="M 45.269531 124.03125 L 36.40625 157.070312 L 80.292969 157.070312 C 80.292969 157.070312 98.242188 89.878906 98.246094 89.859375 C 98.230469 89.871094 45.269531 124.03125 45.269531 124.03125 " fill-opacity="1" fill-rule="evenodd"/></g></svg>